<mxfile host="app.diagrams.net" modified="2022-02-11T09:50:26.478Z" agent="5.0 (Macintosh; Intel Mac OS X 10_15_7) AppleWebKit/537.36 (KHTML, like Gecko) Chrome/97.0.4692.99 Safari/537.36" etag="jbJ9qYq1ks-tNohMyfGC" version="16.0.0" type="github">
  <diagram id="C5RBs43oDa-KdzZeNtuy" name="Page-1">
    <mxGraphModel dx="2493" dy="624" grid="1" gridSize="10" guides="1" tooltips="1" connect="1" arrows="1" fold="1" page="1" pageScale="1" pageWidth="827" pageHeight="1169" math="0" shadow="0">
      <root>
        <mxCell id="WIyWlLk6GJQsqaUBKTNV-0" />
        <mxCell id="WIyWlLk6GJQsqaUBKTNV-1" parent="WIyWlLk6GJQsqaUBKTNV-0" />
        <mxCell id="KmSP3YeYWkZ2eQ97Fxl8-29" value="" style="endArrow=classic;html=1;rounded=0;exitX=1;exitY=0.5;exitDx=0;exitDy=0;exitPerimeter=0;" edge="1" parent="WIyWlLk6GJQsqaUBKTNV-1">
          <mxGeometry width="50" height="50" relative="1" as="geometry">
            <mxPoint x="110" y="390" as="sourcePoint" />
            <mxPoint x="240" y="390" as="targetPoint" />
          </mxGeometry>
        </mxCell>
        <mxCell id="KmSP3YeYWkZ2eQ97Fxl8-30" value="" style="edgeStyle=orthogonalEdgeStyle;rounded=0;orthogonalLoop=1;jettySize=auto;html=1;exitX=0.5;exitY=0;exitDx=0;exitDy=0;" edge="1" parent="WIyWlLk6GJQsqaUBKTNV-1" source="KmSP3YeYWkZ2eQ97Fxl8-34" target="KmSP3YeYWkZ2eQ97Fxl8-36">
          <mxGeometry relative="1" as="geometry">
            <Array as="points">
              <mxPoint x="345" y="270" />
              <mxPoint x="345" y="270" />
            </Array>
          </mxGeometry>
        </mxCell>
        <mxCell id="KmSP3YeYWkZ2eQ97Fxl8-32" value="" style="edgeStyle=orthogonalEdgeStyle;rounded=0;orthogonalLoop=1;jettySize=auto;html=1;" edge="1" parent="WIyWlLk6GJQsqaUBKTNV-1" source="KmSP3YeYWkZ2eQ97Fxl8-34">
          <mxGeometry relative="1" as="geometry">
            <mxPoint x="345" y="510" as="targetPoint" />
          </mxGeometry>
        </mxCell>
        <mxCell id="KmSP3YeYWkZ2eQ97Fxl8-34" value="kafka" style="rounded=0;whiteSpace=wrap;html=1;" vertex="1" parent="WIyWlLk6GJQsqaUBKTNV-1">
          <mxGeometry x="240" y="370" width="210" height="40" as="geometry" />
        </mxCell>
        <mxCell id="KmSP3YeYWkZ2eQ97Fxl8-36" value="elasticsearch" style="shape=cylinder3;whiteSpace=wrap;html=1;boundedLbl=1;backgroundOutline=1;size=15;" vertex="1" parent="WIyWlLk6GJQsqaUBKTNV-1">
          <mxGeometry x="264" y="210" width="150" height="70" as="geometry" />
        </mxCell>
        <mxCell id="KmSP3YeYWkZ2eQ97Fxl8-37" value="" style="shape=filledEdge;rounded=0;fixDash=1;endArrow=none;strokeWidth=10;fillColor=#ffffff;edgeStyle=orthogonalEdgeStyle;entryX=0;entryY=0.5;entryDx=0;entryDy=0;startArrow=none;" edge="1" parent="WIyWlLk6GJQsqaUBKTNV-1" source="KmSP3YeYWkZ2eQ97Fxl8-49">
          <mxGeometry width="60" height="40" relative="1" as="geometry">
            <mxPoint x="450" y="390" as="sourcePoint" />
            <mxPoint x="650" y="390" as="targetPoint" />
          </mxGeometry>
        </mxCell>
        <mxCell id="KmSP3YeYWkZ2eQ97Fxl8-38" value="Apache Flink" style="text;html=1;align=center;verticalAlign=middle;resizable=0;points=[];autosize=1;strokeColor=none;fillColor=none;" vertex="1" parent="WIyWlLk6GJQsqaUBKTNV-1">
          <mxGeometry x="507.5" y="340" width="80" height="20" as="geometry" />
        </mxCell>
        <mxCell id="KmSP3YeYWkZ2eQ97Fxl8-45" value="rdbms,hdfs......" style="shape=cylinder3;whiteSpace=wrap;html=1;boundedLbl=1;backgroundOutline=1;size=15;" vertex="1" parent="WIyWlLk6GJQsqaUBKTNV-1">
          <mxGeometry x="270" y="515" width="150" height="70" as="geometry" />
        </mxCell>
        <mxCell id="KmSP3YeYWkZ2eQ97Fxl8-46" value="redis,es......" style="rounded=0;whiteSpace=wrap;html=1;" vertex="1" parent="WIyWlLk6GJQsqaUBKTNV-1">
          <mxGeometry x="640" y="350" width="140" height="70" as="geometry" />
        </mxCell>
        <mxCell id="KmSP3YeYWkZ2eQ97Fxl8-47" value="DBZ&lt;br&gt;mongoShake" style="text;html=1;align=center;verticalAlign=middle;resizable=0;points=[];autosize=1;strokeColor=none;fillColor=none;" vertex="1" parent="WIyWlLk6GJQsqaUBKTNV-1">
          <mxGeometry x="130" y="355" width="90" height="30" as="geometry" />
        </mxCell>
        <mxCell id="KmSP3YeYWkZ2eQ97Fxl8-48" value="kafka-connect" style="text;html=1;align=center;verticalAlign=middle;resizable=0;points=[];autosize=1;strokeColor=none;fillColor=none;" vertex="1" parent="WIyWlLk6GJQsqaUBKTNV-1">
          <mxGeometry x="350" y="330" width="90" height="20" as="geometry" />
        </mxCell>
        <mxCell id="KmSP3YeYWkZ2eQ97Fxl8-49" value="" style="verticalLabelPosition=bottom;verticalAlign=top;html=1;shape=mxgraph.flowchart.parallel_mode;pointerEvents=1" vertex="1" parent="WIyWlLk6GJQsqaUBKTNV-1">
          <mxGeometry x="500" y="370" width="95" height="40" as="geometry" />
        </mxCell>
        <mxCell id="KmSP3YeYWkZ2eQ97Fxl8-50" value="" style="shape=filledEdge;rounded=0;fixDash=1;endArrow=none;strokeWidth=10;fillColor=#ffffff;edgeStyle=orthogonalEdgeStyle;entryX=0;entryY=0.5;entryDx=0;entryDy=0;" edge="1" parent="WIyWlLk6GJQsqaUBKTNV-1" target="KmSP3YeYWkZ2eQ97Fxl8-49">
          <mxGeometry width="60" height="40" relative="1" as="geometry">
            <mxPoint x="450" y="390" as="sourcePoint" />
            <mxPoint x="650" y="390" as="targetPoint" />
          </mxGeometry>
        </mxCell>
        <mxCell id="KmSP3YeYWkZ2eQ97Fxl8-51" value="3" style="text;html=1;align=center;verticalAlign=middle;resizable=0;points=[];autosize=1;strokeColor=none;fillColor=none;" vertex="1" parent="WIyWlLk6GJQsqaUBKTNV-1">
          <mxGeometry x="165" y="400" width="20" height="20" as="geometry" />
        </mxCell>
        <mxCell id="KmSP3YeYWkZ2eQ97Fxl8-52" value="5" style="text;html=1;align=center;verticalAlign=middle;resizable=0;points=[];autosize=1;strokeColor=none;fillColor=none;" vertex="1" parent="WIyWlLk6GJQsqaUBKTNV-1">
          <mxGeometry x="320" y="330" width="20" height="20" as="geometry" />
        </mxCell>
        <mxCell id="KmSP3YeYWkZ2eQ97Fxl8-53" value="4" style="text;html=1;align=center;verticalAlign=middle;resizable=0;points=[];autosize=1;strokeColor=none;fillColor=none;" vertex="1" parent="WIyWlLk6GJQsqaUBKTNV-1">
          <mxGeometry x="320" y="460" width="20" height="20" as="geometry" />
        </mxCell>
        <mxCell id="KmSP3YeYWkZ2eQ97Fxl8-56" value="6" style="text;html=1;align=center;verticalAlign=middle;resizable=0;points=[];autosize=1;strokeColor=none;fillColor=none;" vertex="1" parent="WIyWlLk6GJQsqaUBKTNV-1">
          <mxGeometry x="470" y="360" width="20" height="20" as="geometry" />
        </mxCell>
        <mxCell id="KmSP3YeYWkZ2eQ97Fxl8-57" value="7" style="text;html=1;align=center;verticalAlign=middle;resizable=0;points=[];autosize=1;strokeColor=none;fillColor=none;" vertex="1" parent="WIyWlLk6GJQsqaUBKTNV-1">
          <mxGeometry x="610" y="360" width="20" height="20" as="geometry" />
        </mxCell>
        <mxCell id="KmSP3YeYWkZ2eQ97Fxl8-61" value="" style="edgeStyle=orthogonalEdgeStyle;rounded=0;orthogonalLoop=1;jettySize=auto;html=1;" edge="1" parent="WIyWlLk6GJQsqaUBKTNV-1" source="KmSP3YeYWkZ2eQ97Fxl8-58" target="KmSP3YeYWkZ2eQ97Fxl8-60">
          <mxGeometry relative="1" as="geometry" />
        </mxCell>
        <mxCell id="KmSP3YeYWkZ2eQ97Fxl8-58" value="电信mongo" style="shape=cylinder3;whiteSpace=wrap;html=1;boundedLbl=1;backgroundOutline=1;size=15;" vertex="1" parent="WIyWlLk6GJQsqaUBKTNV-1">
          <mxGeometry x="-250" y="355" width="60" height="80" as="geometry" />
        </mxCell>
        <mxCell id="KmSP3YeYWkZ2eQ97Fxl8-59" value="mongoDB" style="ellipse;shape=cloud;whiteSpace=wrap;html=1;rounded=0;" vertex="1" parent="WIyWlLk6GJQsqaUBKTNV-1">
          <mxGeometry x="10" y="355" width="120" height="80" as="geometry" />
        </mxCell>
        <mxCell id="KmSP3YeYWkZ2eQ97Fxl8-62" value="" style="edgeStyle=orthogonalEdgeStyle;rounded=0;orthogonalLoop=1;jettySize=auto;html=1;" edge="1" parent="WIyWlLk6GJQsqaUBKTNV-1" source="KmSP3YeYWkZ2eQ97Fxl8-60" target="KmSP3YeYWkZ2eQ97Fxl8-59">
          <mxGeometry relative="1" as="geometry" />
        </mxCell>
        <mxCell id="KmSP3YeYWkZ2eQ97Fxl8-60" value="数据治理" style="rhombus;whiteSpace=wrap;html=1;rounded=0;" vertex="1" parent="WIyWlLk6GJQsqaUBKTNV-1">
          <mxGeometry x="-120" y="355" width="80" height="80" as="geometry" />
        </mxCell>
        <mxCell id="KmSP3YeYWkZ2eQ97Fxl8-63" value="1" style="text;html=1;align=center;verticalAlign=middle;resizable=0;points=[];autosize=1;strokeColor=none;fillColor=none;" vertex="1" parent="WIyWlLk6GJQsqaUBKTNV-1">
          <mxGeometry x="-160" y="400" width="20" height="20" as="geometry" />
        </mxCell>
        <mxCell id="KmSP3YeYWkZ2eQ97Fxl8-64" value="2" style="text;html=1;align=center;verticalAlign=middle;resizable=0;points=[];autosize=1;strokeColor=none;fillColor=none;" vertex="1" parent="WIyWlLk6GJQsqaUBKTNV-1">
          <mxGeometry x="-30" y="400" width="20" height="20" as="geometry" />
        </mxCell>
        <mxCell id="KmSP3YeYWkZ2eQ97Fxl8-65" value="kafka-connect" style="text;html=1;align=center;verticalAlign=middle;resizable=0;points=[];autosize=1;strokeColor=none;fillColor=none;" vertex="1" parent="WIyWlLk6GJQsqaUBKTNV-1">
          <mxGeometry x="350" y="460" width="90" height="20" as="geometry" />
        </mxCell>
        <mxCell id="KmSP3YeYWkZ2eQ97Fxl8-66" value="&lt;font style=&quot;font-size: 18px&quot;&gt;图2&lt;/font&gt;" style="text;html=1;align=center;verticalAlign=middle;resizable=0;points=[];autosize=1;strokeColor=none;fillColor=none;" vertex="1" parent="WIyWlLk6GJQsqaUBKTNV-1">
          <mxGeometry x="230" y="660" width="40" height="20" as="geometry" />
        </mxCell>
      </root>
    </mxGraphModel>
  </diagram>
</mxfile>
